<svg width="118" height="118" viewBox="0 0 118 118" fill="none" xmlns="http://www.w3.org/2000/svg">
<circle cx="59" cy="59" r="59" fill="#7A26F1"/>
<mask id="mask0" mask-type="alpha" maskUnits="userSpaceOnUse" x="0" y="0" width="118" height="118">
<circle cx="59" cy="59" r="59" fill="#264BA4"/>
</mask>
<g mask="url(#mask0)">
<path d="M59.7014 76C62.8765 75.9988 74.0773 76.2422 84.8576 79.4431C99.9856 83.934 107.987 92.3004 108 103.635L59.7014 154.5L10 103.635C10.0092 92.5594 17.6853 84.2961 32.1999 79.7378C43.2189 76.2762 54.9066 76.0025 58.2266 76.0006C58.596 76.0006 58.8537 76.0031 58.9901 76.0062C59.0867 76.0031 59.3415 76.0006 59.7014 76Z" fill="#FB8848"/>
</g>
<path d="M73.2415 30.9897C67.1583 28.2103 60.8377 27.999 59.0461 28C58.8429 28.0006 58.6992 28.0027 58.6446 28.0054C58.5677 28.0027 58.4223 28.0006 58.2138 28.0006C56.3404 28.0022 49.7451 28.2398 43.5272 31.2456C35.3258 35.209 30.9936 42.3982 31 52.0347C31.0075 62.4485 34.5165 69.6532 41.4282 73.4546C47.2094 76.6337 53.9405 76.6289 57.9605 76.6262L59.3668 76.6251C64.9123 76.6214 75.233 76.6138 81.4611 68.7493C84.6772 64.6899 86.3053 59.0538 86.3005 51.9961C86.293 42.1541 81.7781 34.8893 73.2415 30.9897Z" fill="#FFC68D"/>
<path d="M32 38L46.3227 40.2987C54.7205 41.6465 63.2795 41.6465 71.6773 40.2987L86 38V46.6667L71.6773 48.9654C63.2795 50.3132 54.7205 50.3132 46.3227 48.9654L32 46.6667V38Z" fill="#1A2750"/>
<path d="M65.5558 55.9839C65.5558 55.9839 65.7058 55.9223 65.9709 55.831C66.2366 55.7479 66.6143 55.6084 67.0698 55.4755C67.9807 55.2031 69.2002 54.8959 70.4248 54.6465C71.6494 54.3993 72.8785 54.2078 73.8046 54.1113C74.2666 54.0572 74.655 54.043 74.9251 54.0186C75.1963 54 75.3513 54 75.3513 54L75.5558 56.4345C75.5558 56.4345 75.4044 56.4901 75.1382 56.5695C74.8721 56.643 74.4934 56.7662 74.0359 56.8776C73.1214 57.1128 71.8978 57.3659 70.6687 57.5619C69.4396 57.7549 68.206 57.8907 67.2768 57.9501C66.8127 57.9835 66.4234 57.9835 66.1522 57.9968C65.88 58.0035 65.724 57.9976 65.724 57.9976L65.5558 55.9839Z" fill="#2E343A"/>
<path d="M53.3725 57.9971C53.3725 57.9971 53.2009 58.0031 52.902 57.9979C52.6037 57.9852 52.1754 57.9867 51.6649 57.9524C50.6428 57.8957 49.2852 57.7614 47.9331 57.5696C46.5804 57.3757 45.2339 57.1235 44.2279 56.89C43.7241 56.7774 43.3074 56.6543 43.0147 56.5819C42.7219 56.5021 42.5558 56.4469 42.5558 56.4469L42.7769 54C42.7769 54 42.948 53.9993 43.2463 54.0172C43.5441 54.041 43.9707 54.0545 44.4795 54.1082C45.4978 54.2037 46.851 54.3939 48.1981 54.6393C49.5451 54.887 50.8867 55.1929 51.8893 55.4652C52.391 55.598 52.8065 55.7375 53.0987 55.8203C53.3903 55.9113 53.5558 55.9732 53.5558 55.9732L53.3725 57.9971Z" fill="#2E343A"/>
<path d="M22.0912 43.5878L34 42L50.5 33L65.5 36.5L87 40.5L98.1125 37.2074C98.9767 36.9513 99.0877 35.7724 98.2864 35.3596L84 28L86.2993 17.2701C86.6161 15.7912 85.2403 14.5094 83.7875 14.9299L68 19.5L63.7123 8.97563C63.1535 7.6039 61.3494 7.29444 60.3653 8.4015L50.5 19.5L41.7619 12.2816C40.5551 11.2846 38.7225 11.9979 38.5072 13.5483L36.5 28L22.9744 26.691C22.1572 26.612 21.5981 27.4969 22.0205 28.2009L27 36.5L21.2751 41.867C20.5655 42.5323 21.1271 43.7164 22.0912 43.5878Z" fill="#E9C71D"/>
<path d="M87.2517 47.9301L86.6805 43.3295L92.5976 47.5484C93.4067 48.1254 94.4709 47.2967 94.1098 46.3709L90.2445 36.4596L99.0668 26.8562C100.242 25.5773 99.3403 23.5116 97.6037 23.5032L77.7518 23.4069L81.3008 8.48662C81.7162 6.74045 79.7991 5.37343 78.2836 6.33507L59.5118 18.246L53.4366 4.51375C52.7157 2.88422 50.3844 2.93984 49.742 4.6019L43.1511 21.6552L25.3015 15.4305C23.4982 14.8016 21.9235 16.8166 22.9696 18.4145L30.6905 30.207L18.3272 37.322C17.4815 37.8087 17.7621 39.0944 18.7336 39.1845L26.3204 39.8882L22.9096 48.3844C22.5199 49.3551 23.6937 50.1969 24.4881 49.5165L31.217 43.7531L31.0235 49.857L37.283 40.8904L39.0491 40.5437C53.0007 37.805 67.3653 37.9519 81.258 40.9754L87.2517 47.9301Z" fill="#FBE01D"/>
<path d="M46 42.3886C46 40.655 47.6126 39.3721 49.3018 39.7619C55.6834 41.2346 62.3166 41.2346 68.6982 39.7619C70.3874 39.3721 72 40.655 72 42.3886V46.6006C72 48.5563 70.5731 50.2195 68.6401 50.5169C62.251 51.4999 55.749 51.4999 49.3599 50.5169C47.4269 50.2195 46 48.5563 46 46.6006V42.3886Z" fill="#A0A0A0"/>
<path d="M46 40.3886C46 38.655 47.6126 37.3721 49.3018 37.7619C55.6834 39.2346 62.3166 39.2346 68.6982 37.7619C70.3874 37.3721 72 38.655 72 40.3886V44.6006C72 46.5563 70.5731 48.2195 68.6401 48.5169C62.251 49.4999 55.749 49.4999 49.3599 48.5169C47.4269 48.2195 46 46.5563 46 44.6006V40.3886Z" fill="#DFDFDF"/>
</svg>
