<svg xmlns="http://www.w3.org/2000/svg" width="632.574" height="310.666"><path data-name="Path 31710" d="M305.049 105.159l55.283 48.051 80.453-92.562-55.282-48.051a7.968 7.968 0 00-11.241.787l-4.343 5-.179.206-4.112 4.731-.178.206-3.933 4.526-.179.206-3.933 4.525-.179.206-3.933 4.525-.179.206-48.851 56.2a7.915 7.915 0 00-.913 1.287 5.311 5.311 0 00-.134.244 7.969 7.969 0 001.833 9.707z" fill="#fefcfe"/><path data-name="Path 31711" d="M431.742 60.46a1.68 1.68 0 102.59-.487 1.889 1.889 0 00-2.59.487z" fill="#1b1f21"/><path data-name="Path 31712" d="M423.298 70.175a1.68 1.68 0 102.59-.487 1.889 1.889 0 00-2.59.487z" fill="#1b1f21"/><path data-name="Path 31713" d="M415.355 79.625a1.68 1.68 0 102.59-.487 1.89 1.89 0 00-2.59.487z" fill="#1b1f21"/><path data-name="Path 31714" d="M406.552 89.026a1.68 1.68 0 102.59-.487 1.889 1.889 0 00-2.59.487z" fill="#1b1f21"/><path data-name="Path 31715" d="M398.455 98.345a1.68 1.68 0 102.59-.487 1.889 1.889 0 00-2.59.487z" fill="#1b1f21"/><path data-name="Path 31716" d="M390.358 107.658a1.68 1.68 0 102.59-.487 1.889 1.889 0 00-2.59.487z" fill="#1b1f21"/><path data-name="Path 31717" d="M382.261 116.974a1.68 1.68 0 102.59-.487 1.889 1.889 0 00-2.59.487z" fill="#1b1f21"/><ellipse data-name="Ellipse 977" cx="1.635" cy="2.067" rx="1.635" ry="2.067" transform="rotate(-139.004 211.733 -4.605)" fill="#1b1f21"/><path data-name="Path 31718" d="M365.173 136.633a1.68 1.68 0 102.59-.487 1.889 1.889 0 00-2.59.487z" fill="#1b1f21"/><path data-name="Path 31719" d="M432.562 60.451l8.485 7.375a.393.393 0 00.553-.039.393.393 0 00-.039-.553l-8.485-7.375a.393.393 0 00-.552.039.393.393 0 00.038.553z" fill="#475059"/><path data-name="Path 31720" d="M431.297 62.061l8.485 7.375a.393.393 0 00.552-.039.393.393 0 00-.039-.553l-8.485-7.375a.393.393 0 00-.553.039.393.393 0 00.04.553z" fill="#475059"/><path data-name="Path 31721" d="M424.174 70.139l8.485 7.375a.393.393 0 00.553-.039.393.393 0 00-.039-.553l-8.485-7.375a.393.393 0 00-.553.039.393.393 0 00.039.553z" fill="#475059"/><path data-name="Path 31722" d="M422.876 71.634l8.485 7.375a.393.393 0 00.553-.039.393.393 0 00-.039-.553l-8.485-7.375a.393.393 0 00-.553.039.393.393 0 00.039.553z" fill="#475059"/><path data-name="Path 31723" d="M416.232 79.604l8.485 7.375a.393.393 0 00.552-.039.393.393 0 00-.039-.553l-8.485-7.375a.393.393 0 00-.553.039.393.393 0 00.04.553z" fill="#475059"/><path data-name="Path 31724" d="M414.935 81.095l8.485 7.375a.393.393 0 00.553-.039.393.393 0 00-.039-.553l-8.485-7.375a.393.393 0 00-.553.039.393.393 0 00.039.553z" fill="#475059"/><path data-name="Path 31725" d="M407.434 88.997l8.485 7.375a.393.393 0 00.553-.039.393.393 0 00-.039-.553l-8.485-7.375a.393.393 0 00-.552.039.393.393 0 00.038.553z" fill="#475059"/><path data-name="Path 31726" d="M406.137 90.489l8.485 7.375a.393.393 0 00.553-.039.393.393 0 00-.039-.553l-8.485-7.375a.393.393 0 00-.553.039.393.393 0 00.039.553z" fill="#475059"/><path data-name="Path 31727" d="M399.333 98.311l8.485 7.375a.393.393 0 00.553-.039.393.393 0 00-.039-.553l-8.485-7.375a.393.393 0 00-.553.039.393.393 0 00.039.553z" fill="#475059"/><path data-name="Path 31728" d="M398.037 99.802l8.485 7.375a.393.393 0 00.553-.039.393.393 0 00-.039-.553l-8.485-7.375a.393.393 0 00-.553.039.393.393 0 00.039.553z" fill="#475059"/><path data-name="Path 31729" d="M391.223 107.631l8.485 7.375a.393.393 0 00.553-.039.393.393 0 00-.039-.553l-8.485-7.375a.393.393 0 00-.553.039.393.393 0 00.039.553z" fill="#475059"/><path data-name="Path 31730" d="M389.927 109.122l8.485 7.375a.393.393 0 00.552-.039.392.392 0 00-.039-.552l-8.485-7.375a.392.392 0 00-.552.039.393.393 0 00.039.552z" fill="#475059"/><path data-name="Path 31731" d="M383.135 116.944l8.485 7.375a.392.392 0 00.552-.039.393.393 0 00-.039-.553l-8.485-7.375a.393.393 0 00-.553.039.393.393 0 00.04.553z" fill="#475059"/><path data-name="Path 31732" d="M381.839 118.435l8.485 7.375a.393.393 0 00.553-.039.393.393 0 00-.039-.553l-8.485-7.375a.393.393 0 00-.552.039.393.393 0 00.038.553z" fill="#475059"/><path data-name="Path 31733" d="M374.323 127.082l8.485 7.375a.393.393 0 00.553-.039.393.393 0 00-.039-.553l-8.485-7.375a.393.393 0 00-.552.039.393.393 0 00.038.553z" fill="#475059"/><path data-name="Path 31734" d="M373.027 128.573l8.485 7.375a.392.392 0 00.552-.039.393.393 0 00-.039-.553l-8.485-7.375a.393.393 0 00-.553.039.393.393 0 00.04.553z" fill="#475059"/><path data-name="Path 31735" d="M366.06 136.611l8.485 7.375a.393.393 0 00.553-.039.393.393 0 00-.039-.553l-8.484-7.375a.394.394 0 00-.553.039.393.393 0 00.038.553z" fill="#475059"/><path data-name="Path 31736" d="M364.764 138.103l8.485 7.375a.393.393 0 00.553-.039.393.393 0 00-.039-.553l-8.485-7.375a.393.393 0 00-.553.039.393.393 0 00.039.553z" fill="#475059"/><path data-name="Rectangle 5616" fill="#1b1f21" d="M426.686 76.748l-61.257-53.225.179-.205 61.256 53.225z"/><path data-name="Rectangle 5617" fill="#1b1f21" d="M430.977 71.811l-61.236-53.224.178-.206 61.236 53.225z"/><path data-name="Rectangle 5618" fill="#1b1f21" d="M434.732 67.492l-61.256-53.224.179-.206 61.256 53.224z"/><path data-name="Rectangle 5619" fill="#1b1f21" d="M422.574 81.479l-61.236-53.224.178-.206 61.236 53.225z"/><path data-name="Rectangle 5620" fill="#1b1f21" d="M418.462 86.21l-61.256-53.224.178-.205 61.256 53.224z"/><path data-name="Rectangle 5621" fill="#1b1f21" d="M414.35 90.941l-61.257-53.225.18-.206 61.256 53.225z"/><path data-name="Rectangle 5622" fill="#1b1f21" d="M410.238 95.672l-61.297-53.278.179-.206 61.297 53.278z"/><path data-name="Rectangle 5623" fill="#1b1f21" d="M406.126 100.403l-61.297-53.278.179-.206 61.297 53.278z"/><path data-name="Rectangle 5624" fill="#1b1f21" d="M402.193 104.928L340.896 51.65l.179-.206 61.297 53.278z"/><path data-name="Rectangle 5625" fill="#1b1f21" d="M397.902 109.865l-61.317-53.277.179-.206 61.317 53.277z"/><path data-name="Rectangle 5626" fill="#1b1f21" d="M393.969 114.39l-61.317-53.277.179-.206 61.317 53.277z"/><path data-name="Rectangle 5627" fill="#1b1f21" d="M390.035 118.915l-61.297-53.278.179-.206 61.297 53.278z"/><path data-name="Rectangle 5628" fill="#1b1f21" d="M385.745 123.852l-61.297-53.278.179-.206 61.297 53.278z"/><path data-name="Rectangle 5629" fill="#1b1f21" d="M381.275 128.994l-61.317-53.277.179-.206 61.317 53.277z"/><path data-name="Rectangle 5630" fill="#1b1f21" d="M376.984 133.931l-61.317-53.277.179-.206 61.317 53.277z"/><path data-name="Rectangle 5631" fill="#1b1f21" d="M372.872 138.662l-61.297-53.278.178-.205 61.297 53.278z"/><path data-name="Rectangle 5632" fill="#1b1f21" d="M368.581 143.599l-61.317-53.277.179-.206 61.317 53.277z"/><path data-name="Path 31737" d="M303.216 95.45l61.074 53.085.179-.206-61.119-53.124a5.342 5.342 0 00-.134.245z" fill="#1b1f21"/><path data-name="Rectangle 5633" fill="#f9f9f7" d="M565.367 115.661l-59.821-65.428L560.486 0l59.822 65.428z"/><path data-name="Rectangle 5634" fill="#f9f9f7" d="M203.706 222.947l-81.56-34.752 29.181-68.488 81.561 34.752z"/><path data-name="Path 31738" d="M520.784 12.253l8.913 50.764c.055.312-.309.636-.813.725l-4.862.854c-.5.088-.956-.092-1.011-.4l-8.917-50.769a.34.34 0 010-.131l6.637-1.165a.337.337 0 01.053.122z" fill="#f4ba2e"/><path data-name="Path 31739" d="M525.997 64.249l-1.975.347c-.5.088-.956-.092-1.011-.4l-8.913-50.764a.342.342 0 010-.131l1.975-.347a.353.353 0 00-.006.1.2.2 0 000 .032l8.913 50.764c.058.307.514.486 1.017.399z" fill="#ffdb92"/><path data-name="Path 31740" d="M518.429 12.667l8.913 50.764c.055.312-.045.59-.221.621l-1.714.3c-.176.031-.365-.2-.42-.508l-8.913-50.764a.189.189 0 010-.032.927.927 0 01-.011-.1l2.34-.411a1.235 1.235 0 01.026.13z" fill="#ffcc5a"/><path data-name="Path 31741" d="M514.098 13.297s1.016-11.483 1.393-11.562 5.249 10.4 5.249 10.4z" fill="#ededed"/><path data-name="Path 31742" d="M514.853 5.708a28.494 28.494 0 01.619-4.061c.25 0 1.972 3.59 1.972 3.59z" fill="#2d3538"/><path data-name="Path 31743" d="M315.489 188.329a6.808 6.808 0 019.08 3.118l20.53 42a6.809 6.809 0 01-3.118 9.08l-58.288 28.49a6.809 6.809 0 01-9.08-3.118l-20.53-42a6.809 6.809 0 013.118-9.08z" fill="#cecfd1"/><path data-name="Path 31744" d="M321.332 252.625l24.433-17.424a9.129 9.129 0 00-.986-2.412l-9.839-19.707s-18.286-25.148-18.357-25.235l-23.379 12.021-36.56 24.446.477 1.178 58.07 30.08z" fill="#231f20" opacity=".15"/><path data-name="Path 31745" d="M305.308 187.605a6.809 6.809 0 019.5 1.365l28.023 37.423a6.809 6.809 0 01-1.365 9.5l-51.932 38.888a6.808 6.808 0 01-9.5-1.365l-28.023-37.423a6.809 6.809 0 011.365-9.5z" fill="#f6f4f4"/><path data-name="Path 31746" d="M275.502 265.888l12.5-8.1a1.846 1.846 0 012.8.24c1.338 1.627 5.828 11.538 5.828 11.538z" fill="#231f20" opacity=".2"/><path data-name="Path 31747" d="M274.83 266.371l11.092-8.052a1.846 1.846 0 012.8.241c1.339 1.627 7.961 10.967 7.961 10.967z" fill="#dedede"/><path data-name="Path 31748" d="M306.486 247.92a.941.941 0 00.185-1.317l-21.516-28.763a.94.94 0 00-1.317-.186.941.941 0 00-.185 1.317l21.516 28.763a.941.941 0 001.317.186z" fill="#231f20" opacity=".15"/><path data-name="Path 31749" d="M303.278 237.228a.941.941 0 00.185-1.318l-15.274-20.276a.94.94 0 00-1.317-.185.939.939 0 00-.185 1.317l15.274 20.276a.941.941 0 001.317.186z" fill="#231f20" opacity=".15"/><path data-name="Path 31750" d="M312.883 243.268a.942.942 0 00.185-1.317l-21.516-28.763a.94.94 0 00-1.317-.185.941.941 0 00-.186 1.317l21.516 28.763a.941.941 0 001.318.186z" fill="#231f20" opacity=".15"/><path data-name="Path 31751" d="M308.152 229.41a.94.94 0 00.185-1.318l-13.195-17.513a.94.94 0 00-1.317-.185.94.94 0 00-.185 1.317l13.193 17.514a.94.94 0 001.317.186z" fill="#231f20" opacity=".15"/><path data-name="Path 31752" d="M314.016 230.278a.941.941 0 00.185-1.318l-15.691-20.828a.94.94 0 00-1.317-.185.94.94 0 00-.185 1.316l15.69 20.829a.941.941 0 001.317.186z" fill="#231f20" opacity=".15"/><path data-name="Path 31753" d="M323.475 235.571a.941.941 0 00.185-1.317l-21.516-28.76a.94.94 0 00-1.317-.185.941.941 0 00-.185 1.317l21.516 28.763a.94.94 0 001.317.186z" fill="#231f20" opacity=".15"/><path data-name="Path 31754" d="M326.771 233.176a.941.941 0 00.185-1.317l-21.516-28.763a.94.94 0 00-1.317-.185.94.94 0 00-.185 1.317l21.516 28.763a.941.941 0 001.317.185z" fill="#231f20" opacity=".15"/><path data-name="Path 31755" d="M240.615 246.706l10.51 50.458c.064.311-.29.646-.79.75l-4.833 1.007c-.5.1-.958-.062-1.023-.373l-10.51-50.458a.352.352 0 010-.132l6.6-1.374a.332.332 0 01.046.122z" fill="#2d3538"/><path data-name="Path 31756" d="M247.467 298.509l-1.963.408c-.5.1-.958-.062-1.023-.372l-10.51-50.458a.352.352 0 010-.132l1.964-.409a.357.357 0 000 .1.179.179 0 00.005.032l10.51 50.458c.059.311.517.477 1.017.373z" fill="#475059"/><path data-name="Path 31757" d="M238.275 247.191l10.51 50.458c.064.311-.026.591-.2.627l-1.7.355c-.175.036-.371-.184-.436-.495l-10.51-50.458a.228.228 0 010-.032c-.007-.032-.01-.064-.014-.1l2.326-.484a1.127 1.127 0 01.024.129z" fill="#3a4349"/><path data-name="Path 31758" d="M233.966 247.957s.653-11.509 1.028-11.6 5.574 10.226 5.574 10.226z" fill="#6b3e1f"/><path data-name="Path 31759" d="M234.481 240.349a28.51 28.51 0 01.49-4.079c.25-.012 2.085 3.526 2.085 3.526z" fill="#f6f4f4"/><path data-name="Path 31760" d="M270.242 240.15l-29.7 42.121c-.183.259-.669.229-1.087-.065l-4.034-2.845c-.417-.295-.609-.743-.426-1l29.7-42.121a.348.348 0 01.094-.091l5.508 3.883a.346.346 0 01-.055.118z" fill="#252b2d"/><path data-name="Path 31761" d="M237.057 280.52l-1.639-1.156c-.417-.295-.609-.743-.426-1l29.7-42.121a.336.336 0 01.094-.091l1.639 1.156a.371.371 0 00-.075.065.162.162 0 00-.02.026l-29.7 42.122c-.181.256.01.705.427.999z" fill="#414a51"/><path data-name="Path 31762" d="M268.289 238.775l-29.7 42.121c-.183.259-.45.384-.6.281l-1.422-1c-.146-.1-.119-.4.064-.656l29.7-42.121a.165.165 0 01.02-.026.765.765 0 01.061-.075l1.941 1.369a1.1 1.1 0 01-.064.107z" fill="#323b3f"/><path data-name="Path 31763" d="M264.787 236.148s8.857-7.378 9.18-7.167-3.668 11.053-3.668 11.053z" fill="#8e6040"/><path data-name="Path 31764" d="M270.699 231.332a28.492 28.492 0 013.315-2.425c.179.174-1.154 3.93-1.154 3.93z" fill="#323b3f"/><path data-name="Path 31765" d="M152.513 105.234c.906 2.87 34.421 34.779 66.357 62.013 33.108 28.233 116.291 73.372 116.291 73.372 57.419 22.967 150.45 33.936 150.45 33.936l58.983-1.256-1.141-99.989-153 3.574c-24.911-16.215-89.376-33.057-106.923-39.933a766.277 766.277 0 00-4.491-1.747c-8.677-7.436-19.835-7.875-25.949-11.281-8.312-4.63-16.4-7.932-23.43-14.338-6.7-6.1-16.87-9.5-24.143-14.029-10.753-6.7-18.093-13.44-22.315-15.371-1.4-.642-2.185-.977-2.185-.977-29.734.818-28.504 26.026-28.504 26.026z" fill="#3a4349"/><path data-name="Path 31766" d="M183.203 80.182C213.057 110.163 320.18 202.37 320.18 202.37l1.18-39.805c-2.868-1.124-44.442-29.1-44.442-29.1-11.229-5.909-28.075-15.172-34.3-18.778-12.065-6.987-32.105-18.335-40.694-23.419z" fill="#1b1f21"/><path data-name="Path 31767" d="M110.238 226.121l33.059-5.752s82.717-20.045 114.95-23.665c0 0 78.087-9.815 105.155-12.154 0 0 150.069-6.887 171.944-8.527l12.827-62.113-58.372-29.132s-65.048 11.2-131.678 24.068c-52.973 10.233-106.947 21.524-130.029 29.087l-60.266 20.024c-6.5 2.158-34.66 12.5-41.917 16.894-4.675 2.832-10.314 2.337-16.343 11.134a60.947 60.947 0 00-19.59 19.345s-6.447-1.608-6.72 2.767 11.395 18.024 26.98 18.024z" fill="#475059"/><path data-name="Path 31768" d="M75.746 44.658c0 25.113 25.872 35.88 39.209 39.762a67.376 67.376 0 0116.717 7.43l16.47 10.227s1.23-23.993 27.684-26.453l-45.6-38.141-10.041-8.4c-7.339-6.433-19.411-12.52-28.689-9.488a21.506 21.506 0 00-11.537 8.5c-2.552 3.906-4.213 9.26-4.213 16.563z" fill="#1b1f21"/><path data-name="Path 31769" d="M569.104 279.705s-31.122 5.979-32.5-1.22c-15.5-80.914-1.668-198.56-1.668-198.56l40.474 3.1z" fill="#512d10"/><path data-name="Path 31770" d="M109.57 185.987c71.4-37.949 251.247-67.187 251.247-67.187l-2.693-9.953c-52.973 10.232-106.947 21.524-130.028 29.087l-60.266 20.024c-6.5 2.158-34.046 11.172-41.616 15-6.787 3.44-15.037 9.622-16.644 13.029z" fill="#2d3538"/><rect data-name="Rectangle 5635" width="124.948" height="178.811" rx="10" transform="translate(395.266 90.25)" fill="#eaeaea"/><rect data-name="Rectangle 5636" width="64.092" height="156.541" rx="4" transform="translate(403.035 100.996)" fill="#b2b2b2"/><rect data-name="Rectangle 5637" width="42.34" height="58.309" rx="4" transform="translate(472.566 150.673)" fill="#bfbfbf"/><g data-name="Group 8008" transform="translate(406.229 103.953)" fill="#fff"><rect data-name="Rectangle 5638" width="5.934" height="9.711" rx="2.967"/><rect data-name="Rectangle 5639" width="5.934" height="9.711" rx="2.967" transform="translate(0 10.882)"/><rect data-name="Rectangle 5640" width="5.934" height="9.711" rx="2.967" transform="translate(0 21.763)"/><rect data-name="Rectangle 5641" width="5.934" height="9.711" rx="2.967" transform="translate(0 32.645)"/><rect data-name="Rectangle 5642" width="5.934" height="9.711" rx="2.967" transform="translate(0 43.527)"/><rect data-name="Rectangle 5643" width="5.934" height="9.711" rx="2.967" transform="translate(0 54.408)"/><rect data-name="Rectangle 5644" width="5.934" height="9.711" rx="2.967" transform="translate(0 65.29)"/><rect data-name="Rectangle 5645" width="5.934" height="9.711" rx="2.967" transform="translate(0 76.172)"/><rect data-name="Rectangle 5646" width="5.934" height="9.711" rx="2.967" transform="translate(0 87.053)"/><rect data-name="Rectangle 5647" width="5.934" height="9.711" rx="2.967" transform="translate(0 97.935)"/><rect data-name="Rectangle 5648" width="5.934" height="9.711" rx="2.967" transform="translate(0 108.817)"/><rect data-name="Rectangle 5649" width="5.934" height="9.711" rx="2.967" transform="translate(0 119.698)"/><rect data-name="Rectangle 5650" width="5.934" height="9.711" rx="2.967" transform="translate(0 130.58)"/><rect data-name="Rectangle 5651" width="5.934" height="9.711" rx="2.967" transform="translate(0 141.462)"/><rect data-name="Rectangle 5652" width="8.805" height="8.805" rx="3.141" transform="translate(6.825 .345)"/><rect data-name="Rectangle 5653" width="8.805" height="8.805" rx="3.141" transform="translate(17.021 16.314)"/><rect data-name="Rectangle 5654" width="8.805" height="8.805" rx="3.141" transform="translate(27.217 18.667)"/><rect data-name="Rectangle 5655" width="8.805" height="8.805" rx="3.141" transform="translate(37.413 24.148)"/><rect data-name="Rectangle 5656" width="9.927" height="8.805" rx="3.335" transform="translate(47.605 .345)"/><rect data-name="Rectangle 5657" width="9.927" height="8.805" rx="3.335" transform="translate(47.605 11.07)"/><rect data-name="Rectangle 5658" width="9.927" height="8.805" rx="3.335" transform="translate(47.605 21.472)"/><rect data-name="Rectangle 5659" width="9.927" height="11.48" rx="3.808" transform="translate(47.605 31.96)"/><rect data-name="Rectangle 5660" width="9.927" height="11.481" rx="3.808" transform="translate(47.605 97.153)"/><rect data-name="Rectangle 5661" width="9.927" height="8.686" rx="3.313" transform="translate(47.605 110.619)"/><rect data-name="Rectangle 5662" width="9.927" height="50.756" rx="4.963" transform="translate(47.605 45.124)"/><rect data-name="Rectangle 5663" width="8.805" height="8.805" rx="3.141" transform="translate(37.413 34.636)"/><rect data-name="Rectangle 5664" width="8.805" height="8.805" rx="3.141" transform="translate(37.413 45.124)"/><rect data-name="Rectangle 5665" width="8.805" height="8.805" rx="3.141" transform="translate(37.413 55.611)"/><rect data-name="Rectangle 5666" width="8.805" height="8.805" rx="3.141" transform="translate(37.413 66.099)"/><rect data-name="Rectangle 5667" width="8.805" height="8.805" rx="3.141" transform="translate(37.413 76.587)"/><rect data-name="Rectangle 5668" width="8.805" height="8.805" rx="3.141" transform="translate(37.413 87.075)"/><rect data-name="Rectangle 5669" width="8.805" height="8.805" rx="3.141" transform="translate(37.413 97.563)"/><rect data-name="Rectangle 5670" width="8.805" height="8.805" rx="3.141" transform="translate(37.413 108.051)"/><rect data-name="Rectangle 5671" width="5.114" height="8.966" rx="2.557" transform="translate(52.569 120.837)"/><rect data-name="Rectangle 5672" width="5.114" height="8.966" rx="2.557" transform="translate(52.569 131.357)"/><rect data-name="Rectangle 5673" width="5.114" height="8.966" rx="2.557" transform="translate(46.836 131.357)"/><rect data-name="Rectangle 5674" width="5.114" height="8.966" rx="2.557" transform="translate(52.569 141.877)"/><rect data-name="Rectangle 5675" width="8.805" height="8.805" rx="3.141" transform="translate(27.217 29.252)"/><rect data-name="Rectangle 5676" width="8.805" height="8.805" rx="3.141" transform="translate(27.217 39.837)"/><rect data-name="Rectangle 5677" width="8.805" height="8.805" rx="3.141" transform="translate(27.217 50.421)"/><rect data-name="Rectangle 5678" width="8.805" height="8.805" rx="3.141" transform="translate(27.217 60.942)"/><rect data-name="Rectangle 5679" width="8.805" height="8.805" rx="3.141" transform="translate(27.217 71.527)"/><rect data-name="Rectangle 5680" width="8.805" height="8.805" rx="3.141" transform="translate(27.217 81.658)"/><rect data-name="Rectangle 5681" width="8.805" height="8.805" rx="3.141" transform="translate(27.217 92.146)"/><rect data-name="Rectangle 5682" width="8.805" height="8.805" rx="3.141" transform="translate(27.217 102.634)"/><rect data-name="Rectangle 5683" width="8.805" height="8.805" rx="3.141" transform="translate(27.217 113.057)"/><rect data-name="Rectangle 5684" width="8.805" height="8.805" rx="3.141" transform="translate(27.217 123.48)"/><rect data-name="Rectangle 5685" width="8.805" height="8.805" rx="3.141" transform="translate(37.413 118.436)"/><rect data-name="Rectangle 5686" width="8.805" height="16.595" rx="4.312" transform="translate(27.217 134.292)"/><path data-name="Rectangle 5687" d="M41.813 128.821a4.4 4.4 0 014.4 4.4v13.263a4.4 4.4 0 01-4.4 4.4 4.4 4.4 0 01-4.4-4.4v-13.263a4.4 4.4 0 014.4-4.4z"/><path data-name="Rectangle 5688" d="M31.551.345h.136a4.335 4.335 0 014.33 4.335v8.1a4.334 4.334 0 01-4.33 4.333h-.135a4.335 4.335 0 01-4.335-4.335v-8.1A4.334 4.334 0 0131.551.345z"/><rect data-name="Rectangle 5689" width="8.805" height="22.378" rx="4.402" transform="translate(37.413 .173)"/><rect data-name="Rectangle 5690" width="8.805" height="8.805" rx="3.141" transform="translate(17.021 26.845)"/><rect data-name="Rectangle 5691" width="8.805" height="8.805" rx="3.141" transform="translate(17.021 37.312)"/><rect data-name="Rectangle 5692" width="8.805" height="8.805" rx="3.141" transform="translate(17.021 47.843)"/><rect data-name="Rectangle 5693" width="8.805" height="8.805" rx="3.141" transform="translate(17.021 58.374)"/><rect data-name="Rectangle 5694" width="8.805" height="8.805" rx="3.141" transform="translate(17.021 68.84)"/><rect data-name="Rectangle 5695" width="8.805" height="8.805" rx="3.141" transform="translate(17.021 79.069)"/><rect data-name="Rectangle 5696" width="8.805" height="8.805" rx="3.141" transform="translate(17.021 89.686)"/><rect data-name="Rectangle 5697" width="8.805" height="8.805" rx="3.141" transform="translate(17.021 100.174)"/><rect data-name="Rectangle 5698" width="8.805" height="8.805" rx="3.141" transform="translate(17.021 110.489)"/><rect data-name="Rectangle 5699" width="8.805" height="8.805" rx="3.141" transform="translate(17.021 121.236)"/><rect data-name="Rectangle 5700" width="8.805" height="8.805" rx="3.141" transform="translate(17.021 131.508)"/><rect data-name="Rectangle 5701" width="8.805" height="8.805" rx="3.141" transform="translate(17.021 142.082)"/><rect data-name="Rectangle 5702" width="8.805" height="8.805" rx="3.141" transform="translate(6.825 11.027)"/><rect data-name="Rectangle 5703" width="8.805" height="8.805" rx="3.141" transform="translate(6.825 21.386)"/><rect data-name="Rectangle 5704" width="8.805" height="8.805" rx="3.141" transform="translate(6.825 32.003)"/><rect data-name="Rectangle 5705" width="8.805" height="8.805" rx="3.141" transform="translate(6.825 42.356)"/><rect data-name="Rectangle 5706" width="8.805" height="8.805" rx="3.141" transform="translate(6.825 53.033)"/><rect data-name="Rectangle 5707" width="8.805" height="8.805" rx="3.141" transform="translate(6.825 63.294)"/><rect data-name="Rectangle 5708" width="8.805" height="8.805" rx="3.141" transform="translate(6.825 73.954)"/><rect data-name="Rectangle 5709" width="8.805" height="8.805" rx="3.141" transform="translate(6.825 84.313)"/><rect data-name="Rectangle 5710" width="8.805" height="8.805" rx="3.141" transform="translate(6.825 94.952)"/><rect data-name="Rectangle 5711" width="8.805" height="8.805" rx="3.141" transform="translate(6.825 105.569)"/><rect data-name="Rectangle 5712" width="8.805" height="8.805" rx="3.141" transform="translate(6.825 116.078)"/><rect data-name="Rectangle 5713" width="8.805" height="8.805" rx="3.141" transform="translate(6.825 126.178)"/><rect data-name="Rectangle 5714" width="8.805" height="14.102" rx="4.402" transform="translate(6.825 136.666)"/><rect data-name="Rectangle 5715" width="8.805" height="14.102" rx="4.402" transform="translate(17.021 .345)"/></g><path data-name="Rectangle 5716" d="M395.989 108.605a1.881 1.881 0 011.881 1.881v137.808a1.881 1.881 0 01-1.881 1.881 1.881 1.881 0 01-1.881-1.881V110.486a1.881 1.881 0 011.881-1.881z" fill="#848484"/><path data-name="Path 31771" d="M394.111 264.1V94.684a3.839 3.839 0 00-2.352-3.552l-69-26.621a.984.984 0 00-1.4.912v227.56a1.137 1.137 0 001.608 1.056l68.653-26.195a4.041 4.041 0 002.491-3.744z" fill="#eaeaea"/><path data-name="Path 31772" d="M321.267 294.497l.093-230.2a25.067 25.067 0 00-2.29 2.013 20.668 20.668 0 00-1.831 2.78v220.04s1.419 2.243 1.831 2.769 2.197 2.598 2.197 2.598z" fill="#848484"/><path data-name="Path 31773" d="M386.617 263.779V95.604l-61.214-22v212.05z" fill="#3f4d50"/><path data-name="Rectangle 5717" d="M397.172 108.605a.7.7 0 01.7.7v140.87h-1.393V109.298a.693.693 0 01.693-.693z" fill="#bfbfbf"/><path data-name="Path 31774" d="M632.515 306.847V45.2l-28.024 4.177-36.521 14.552a176.748 176.748 0 00-13.717 33.952c-5.875 19.836-11.043 47.952-9.329 83.264 0 0-2.416 36.731 18.542 103.712z" fill="#6b3e1f"/><path data-name="Path 31775" d="M530.78 249.048l-2.291-.594s.2-6.411-2.491-9.065c0 0-21.738-22.623-25.648-26.037 0 0-7.482-1.711-6.448 6.082 0 0-.337 1.411 1.3 3.435l8.135 9.067-37.057-10.968a6.976 6.976 0 00-3.68-.1 5.365 5.365 0 00-4.078 4.115 4.639 4.639 0 00.584 3.269c.858 1.574 2.356 2.1 4.072 2.614l28.986 9.892-33.071-9.153c-1.836-.538-5.227-1.211-6.815-.144a6.382 6.382 0 00-2.488 5.1s.28 3.707 4.73 5.448l31.646 9.861-26.171-6.592c-2.105-.576-7.177-1.7-8.709.417a5.775 5.775 0 00-.8 2.214s-1.315 2.785 2.485 5.241a20.359 20.359 0 003.388 1.392l28.443 9.332-19.5-5.055c-2.026-.588-4.468-.59-5.751 1.084a4.2 4.2 0 00-.856 1.994s-1.037 4.245 4.241 5.95l34.794 9.124 7.967 1.644a21.471 21.471 0 006.436.36 15.783 15.783 0 004.679-1.134s3.069-1.189 3.35-2l2.953.934z" fill="#020202" opacity=".26"/><path data-name="Path 31776" d="M530.604 250.223l-2.292-.594s.2-6.41-2.491-9.065c0 0-21.738-22.623-25.648-26.036 0 0-7.482-1.711-6.448 6.081 0 0-.337 1.411 1.3 3.435l8.135 9.067-37.054-10.97a6.969 6.969 0 00-3.68-.1 5.366 5.366 0 00-4.078 4.115 4.64 4.64 0 00.584 3.27c.858 1.573 2.356 2.1 4.072 2.614l28.984 9.901-33.071-9.153c-1.836-.538-5.227-1.211-6.815-.144a6.382 6.382 0 00-2.488 5.1s.279 3.707 4.73 5.448l31.644 9.849-26.171-6.592c-2.106-.576-7.177-1.7-8.71.417a5.773 5.773 0 00-.8 2.214s-1.315 2.785 2.485 5.242a20.374 20.374 0 003.388 1.392l28.443 9.332-19.5-5.056c-2.026-.588-4.468-.59-5.751 1.084a4.2 4.2 0 00-.856 1.994s-1.037 4.245 4.241 5.95l34.794 9.124 7.967 1.644a21.48 21.48 0 006.437.36 15.782 15.782 0 004.679-1.134s3.069-1.189 3.35-2l2.953.934z" fill="#edbe85"/><path data-name="Rectangle 5718" fill="#fff" d="M523.352 282.224l-3.894-1.19 10.81-35.391 3.894 1.189z"/><path data-name="Path 31777" d="M522.584 282.301l5.029 1.266s42.595 12.022 78.159 20.913c11.548 2.887 21.391 5.158 26.8 6.185l-.013-47.177c-17.752-.775-74.745-12.785-74.745-12.785l-23.624-6.011-2.555 8.161z" fill="#6b3e1f"/><path data-name="Path 31778" d="M537.325 281.583a1.58 1.58 0 102.226-.195 1.58 1.58 0 00-2.226.195z" fill="#fff"/><path data-name="Path 31779" d="M542.244 283.032a1.58 1.58 0 102.226-.195 1.58 1.58 0 00-2.226.195z" fill="#fff"/><circle data-name="Ellipse 978" cx="1.58" cy="1.58" transform="rotate(-147.504 316.376 63.798)" fill="#fff" r="1.58"/><path data-name="Path 31780" d="M468.435 225.334l-1.756 5.939a.944.944 0 01-1.191.632l-3.229-1.027s-2.513-.969-1.958-4.339a4.408 4.408 0 013.33-3.325 7.36 7.36 0 013.119.644l1.043.3a.944.944 0 01.642 1.176z" fill="#fff2e6"/><path data-name="Path 31781" d="M459.689 235.807l-1.681 5.684a.9.9 0 01-1.14.605l-3.09-.983s-2.405-.927-1.874-4.153a4.219 4.219 0 013.187-3.182 7.042 7.042 0 012.985.616l1 .29a.9.9 0 01.613 1.123z" fill="#fff2e6"/><path data-name="Path 31782" d="M458.649 248.543l-1.224 4.954a.777.777 0 01-.957.565l-2.7-.725a3.051 3.051 0 01-1.773-3.5 3.632 3.632 0 012.617-2.861 6.067 6.067 0 012.591.413l.87.21a.777.777 0 01.576.944z" fill="#fff2e6"/><path data-name="Path 31783" d="M466.69 262.645l-1.2 4.845a.761.761 0 01-.936.552l-2.636-.709a2.984 2.984 0 01-1.735-3.422 3.553 3.553 0 012.56-2.8 5.928 5.928 0 012.534.4l.85.206a.761.761 0 01.563.928z" fill="#fff2e6"/><path data-name="Path 31784" d="M502.41 218.817l-2.8 2.525a.641.641 0 01-.9-.189l-1.647-2.046a2.781 2.781 0 01.092-3.322 2.419 2.419 0 012.986-.344 7.094 7.094 0 011.693 1.781l.54.645a.7.7 0 01.036.95z" fill="#fff2e6"/><path data-name="Path 31785" d="M513.129 106.798l-2.17.563s.187 6.072-2.359 8.586c0 0-20.589 21.427-24.293 24.66 0 0-7.086 1.62-6.107-5.76 0 0-.319-1.336 1.234-3.253l7.7-8.588-35.1 10.388a6.6 6.6 0 01-3.486.092 5.082 5.082 0 01-3.862-3.9 4.395 4.395 0 01.553-3.1c.813-1.49 2.231-1.987 3.857-2.476l27.454-9.369-31.321 8.675c-1.739.51-4.951 1.147-6.455.136a6.044 6.044 0 01-2.357-4.826s.265-3.511 4.48-5.161l29.973-9.339-24.788 6.244c-1.994.546-6.8 1.608-8.249-.395a5.468 5.468 0 01-.761-2.1s-1.245-2.638 2.353-4.965a19.306 19.306 0 013.204-1.314l26.94-8.839-18.469 4.788c-1.919.557-4.231.559-5.447-1.027a3.975 3.975 0 01-.811-1.889s-.982-4.02 4.017-5.635l32.955-8.642 7.546-1.557a20.346 20.346 0 016.1-.341 14.944 14.944 0 014.432 1.074s2.907 1.126 3.173 1.894l2.8-.884z" fill="#020202" opacity=".26"/><path data-name="Path 31786" d="M512.156 106.254l-2.17.563s.187 6.072-2.359 8.586c0 0-20.589 21.427-24.293 24.66 0 0-7.087 1.62-6.107-5.76 0 0-.319-1.337 1.234-3.253l7.7-8.588-35.1 10.388a6.6 6.6 0 01-3.486.092 5.082 5.082 0 01-3.862-3.9 4.4 4.4 0 01.553-3.1c.812-1.49 2.231-1.987 3.857-2.475l27.454-9.369-31.323 8.669c-1.739.509-4.951 1.147-6.455.136a6.044 6.044 0 01-2.357-4.826s.265-3.511 4.48-5.161l29.983-9.331-24.788 6.244c-1.994.546-6.8 1.608-8.249-.395a5.467 5.467 0 01-.761-2.1s-1.245-2.638 2.353-4.965a19.322 19.322 0 013.209-1.318l26.94-8.838-18.469 4.788c-1.919.557-4.231.559-5.447-1.027a3.975 3.975 0 01-.811-1.889s-.982-4.02 4.017-5.635l32.955-8.642 7.546-1.557a20.338 20.338 0 016.1-.341 14.944 14.944 0 014.432 1.074s2.907 1.126 3.173 1.894l2.8-.884z" fill="#edbe85"/><path data-name="Rectangle 5719" fill="#fff" d="M512.543 112.019l-9.967-35.654 3.923-1.097 9.967 35.654z"/><path data-name="Path 31787" d="M516.772 111.307l8.3-2.107 28.376-7.2v-.071c1.391-.324 2.889-.652 4.362-.981 25.451-5.7 57-12.011 74.749-12.785l.015-49.125c-5.41 1.027-15.543 3.147-27.059 6.162-21.38 5.6-47.9 14.681-68.06 20.435l-32.234 8.177z" fill="#6b3e1f"/><path data-name="Path 31788" d="M518.196 78.772a1.58 1.58 0 112.226.195 1.58 1.58 0 01-2.226-.195z" fill="#fff"/><path data-name="Path 31789" d="M523.116 77.324a1.58 1.58 0 112.226.195 1.58 1.58 0 01-2.226-.195z" fill="#fff"/><path data-name="Path 31790" d="M528.119 75.975a1.58 1.58 0 112.226.195 1.58 1.58 0 01-2.226-.195z" fill="#fff"/><path data-name="Path 31791" d="M453.273 129.828l-1.663-5.625a.894.894 0 00-1.128-.6l-3.058.973s-2.38.917-1.854 4.11a4.175 4.175 0 003.154 3.149 6.971 6.971 0 002.954-.61l.988-.287a.894.894 0 00.607-1.11z" fill="#fff2e6"/><path data-name="Path 31792" d="M444.991 119.909l-1.592-5.384a.856.856 0 00-1.08-.573l-2.927.931s-2.278.878-1.775 3.934a4 4 0 003.019 3.014 6.672 6.672 0 002.828-.584l.945-.274a.856.856 0 00.582-1.064z" fill="#fff2e6"/><path data-name="Path 31793" d="M444.002 107.846l-1.159-4.692a.737.737 0 00-.907-.535l-2.553.687a2.89 2.89 0 00-1.68 3.314 3.441 3.441 0 002.479 2.71 5.743 5.743 0 002.454-.392l.824-.2a.737.737 0 00.542-.892z" fill="#fff2e6"/><path data-name="Path 31794" d="M451.62 94.489l-1.134-4.589a.72.72 0 00-.886-.523l-2.5.672a2.826 2.826 0 00-1.643 3.241 3.364 3.364 0 002.424 2.65 5.616 5.616 0 002.4-.383l.805-.195a.72.72 0 00.534-.873z" fill="#fff2e6"/><path data-name="Path 31795" d="M485.454 136.001l-2.655-2.392a.607.607 0 00-.857.179l-1.56 1.938a2.634 2.634 0 00.087 3.146 2.291 2.291 0 002.828.326 6.71 6.71 0 001.6-1.687l.512-.61a.663.663 0 00.045-.9z" fill="#fff2e6"/><path data-name="Path 31796" d="M516.772 111.307a77.974 77.974 0 018.3-2.107l28.376-7.2v-.071c1.391-.324 2.866-.652 4.339-.981 25.451-5.695 56.991-12.011 74.73-12.785V72.047l-85.185 21.052a171.034 171.034 0 01-19.013 3.989c-10.631 1.61-18.224-7.436-18.224-7.436z" fill="#42210b"/><path data-name="Path 31797" d="M528.906 261.575a27.45 27.45 0 0111.536-4.209c6.785-.824 14.813 1.006 14.813 1.006l77.26 18.042V263.49c-17.738-.775-74.723-12.785-74.723-12.785l-23.613-6.012z" fill="#42210b"/><path data-name="Path 31798" d="M183.204 80.178l-6.134-5.987a8.041 8.041 0 00-9.223-1.436c-6.409 3.218-16.961 9.838-22.324 20.5a8.426 8.426 0 002.817 10.764l6.012 4.062s4.455-17.248 28.852-27.903z" fill="#e2e2e2"/><path data-name="Path 31799" d="M.046 195.365a22.592 22.592 0 002.4 8.529c.039.079.075.154.113.227 4.417 8.7 17.249 12.929 26.989 13.569l4.038.36 1.03.091 67.186 5.987c-16.965-20.446-.87-38.281-.87-38.281l-18.875-4.414a67.344 67.344 0 01-17.073-6.564c-12.177-6.686-38.081-17.364-55.839.393q-.641.642-1.229 1.278a30.675 30.675 0 00-6.707 10.573 20.473 20.473 0 00-1.163 8.252z" fill="#1b1f21"/><path data-name="Path 31800" d="M110.238 226.121l-8.57-.1a8.041 8.041 0 01-7.538-5.507c-2.256-6.807-5.037-18.95-1.287-30.284a8.426 8.426 0 019.6-5.619l7.23 1.166s-8.824 15.297.565 40.344z" fill="#e2e2e2"/><path data-name="Path 31801" d="M107.569 68.865s3.919-5.435 8.6-10.584c3.26-3.588 9.714-9.57 9.714-9.57a1.476 1.476 0 00.255-2l-.428-.388c-.47-.427-1.275-.136-1.965.444a113.972 113.972 0 00-9.7 9.58 102.478 102.478 0 00-8.609 10.573c-.617.942-.726 1.571-.255 2l.429.388c.465.432 1.348.231 1.959-.443z" fill="#e2e2e2"/><path data-name="Path 31802" d="M102.091 64.057s3.918-5.435 8.6-10.584c3.26-3.588 9.713-9.57 9.713-9.57a1.477 1.477 0 00.255-2l-.428-.388c-.471-.427-1.275-.136-1.965.445a114.017 114.017 0 00-9.7 9.58 102.479 102.479 0 00-8.615 10.575c-.617.942-.726 1.571-.254 2l.428.388c.472.426 1.355.226 1.966-.446z" fill="#e2e2e2"/><path data-name="Path 31803" d="M96.421 59.483s3.919-5.435 8.6-10.584c3.26-3.588 9.713-9.57 9.713-9.57a1.475 1.475 0 00.255-2l-.428-.389c-.471-.427-1.275-.136-1.965.445a113.956 113.956 0 00-9.7 9.58 102.541 102.541 0 00-8.609 10.573c-.617.942-.724 1.571-.254 2l.427.388c.467.429 1.352.229 1.961-.443z" fill="#e2e2e2"/><path data-name="Path 31804" d="M43.219 209.103s.037-6.7.858-13.608c.573-4.814 2.356-13.431 2.356-13.431.107-.9-.321-1.7-.952-1.775l-.574-.068c-.631-.075-1.117.629-1.342 1.5a113.835 113.835 0 00-2.34 13.432 102.512 102.512 0 00-.874 13.607c.044 1.125.321 1.7.952 1.775l.574.068c.631.078 1.235-.598 1.342-1.5z" fill="#e2e2e2"/><path data-name="Path 31805" d="M35.969 208.365s.037-6.7.858-13.609c.572-4.814 2.355-13.43 2.355-13.43.108-.9-.321-1.7-.952-1.775l-.573-.068c-.632-.075-1.117.629-1.343 1.5a114.044 114.044 0 00-2.34 13.432 102.513 102.513 0 00-.874 13.607c.044 1.125.321 1.7.952 1.775l.574.068c.632.077 1.235-.599 1.343-1.5z" fill="#e2e2e2"/><path data-name="Path 31806" d="M28.695 207.929s.037-6.7.858-13.609c.573-4.814 2.356-13.431 2.356-13.431.107-.9-.321-1.7-.953-1.775l-.573-.068c-.631-.075-1.117.629-1.342 1.5a114.044 114.044 0 00-2.34 13.432 102.515 102.515 0 00-.874 13.607c.044 1.125.32 1.7.952 1.775l.574.068c.632.079 1.236-.597 1.342-1.499z" fill="#e2e2e2"/><path data-name="Path 31807" d="M79.958 28.093c15.883-7.52 50.257 9.389 50.257 9.389l-10.037-8.4c-7.338-6.433-19.408-12.52-28.686-9.488a21.5 21.5 0 00-11.534 8.499z" fill="#31373a"/><path data-name="Path 31808" d="M34.614 218.142l-1.03-.092q.507.059 1.03.092z" fill="#31373a"/><path data-name="Path 31809" d="M.046 195.366a22.985 22.985 0 002.4 8.528c.039.079.075.154.113.227 4.417 8.7 17.249 12.929 26.989 13.569l4.037.359C11.57 215.52 8.258 177.34 7.916 176.539a30.678 30.678 0 00-6.707 10.573 20.48 20.48 0 00-1.163 8.254z" fill="#31373a"/></svg>